
<svg width="53" height="53" viewBox="0 0 53 53" fill="none" xmlns="http://www.w3.org/2000/svg">
<rect x="0.578735" y="0.5" width="51.3732" height="51.3732" rx="5.5" stroke="#190809"/>
<path d="M19.7326 2.88708C17.0172 5.53168 15.9251 7.98737 15.7381 10.2768C15.5709 12.3635 16.1612 14.3608 17.1746 16.2596C18.2765 15.9841 19.4571 15.9939 20.5885 16.3481C21.0313 14.469 21.6216 12.5505 22.9793 10.8386C24.396 9.06173 26.6097 7.58202 30.1122 6.56177C27.9477 4.89414 25.3799 3.78731 22.6448 3.25308C21.6413 3.05729 20.6672 2.93529 19.7326 2.88708ZM17.2631 2.92742C14.1541 3.19897 11.5076 4.32351 9.36575 6.05902C7.74042 7.37344 6.3955 9.05386 5.36639 11.0058L5.50216 10.9861C6.12002 15.4135 8.61015 17.9125 12.9243 19.2111C13.613 18.2371 14.5083 17.45 15.5119 16.9089C14.4493 14.8527 13.7803 12.5701 13.9771 10.1341C14.164 7.7965 15.1675 5.36147 17.2631 2.92742ZM31.706 7.96966C27.7706 8.92301 25.6554 10.3299 24.3665 11.9405C23.1859 13.4359 22.6743 15.1675 22.2414 17.0762C22.9596 17.4894 23.5106 17.9813 23.9238 18.5323C24.3173 19.0636 24.5731 19.6342 24.7699 20.2147C28.056 18.67 32.2668 16.9483 36.3793 17.2533C35.6906 13.3867 34.0181 10.2866 31.706 7.96966ZM4.27629 13.495C3.80109 14.833 3.4528 16.2596 3.24127 17.755C2.79461 20.9034 3.21078 24.396 4.32154 27.5837C7.24456 27.869 9.61072 27.3279 11.4781 25.4389C11.419 24.8978 11.3994 24.3468 11.4092 23.7959C11.4289 22.7136 11.6552 21.6904 12.0389 20.7755C8.23038 19.5063 5.47658 17.1057 4.27629 13.495ZM35.5627 18.9947H35.3069L34.6576 19.0242C34.4411 19.0439 34.2345 19.0636 34.0279 19.0832C30.7517 19.4571 27.3082 20.9526 24.5731 22.2611L23.8648 22.5956C23.7664 22.6841 23.6581 22.7727 23.5598 22.8711C23.5598 22.8711 21.2969 21.0903 18.1387 20.4409C15.866 19.9785 16.5252 23.7368 18.2863 25.2618C20.1458 26.8852 21.9069 26.8655 21.9069 26.8655C20.8247 28.8627 19.9097 30.6238 19.0734 32.2373C21.3363 32.7981 24.3764 32.6997 28.4101 31.5093L29.5612 31.1649L29.5416 32.3652C29.5022 35.0708 26.9934 37.6485 23.4515 39.0849C21.0411 40.0589 18.0797 40.4623 14.9412 39.8228C13.1506 42.7645 11.0157 45.7357 7.64597 49.6023H36.094C36.0842 48.5889 36.1137 47.5559 36.153 46.4933L37.2254 47.0148L36.3892 44.1517L37.924 44.565L36.2514 39.1144C36.1727 37.8157 36.0055 36.5466 35.7005 35.3266C40.0196 36.34 45.3914 37.7174 48.097 37.0385C48.8841 36.8417 50.1729 34.3231 49.8384 32.7194C49.317 30.1712 45.8735 29.148 44.0927 27.564C44.0927 27.564 42.8629 24.7109 41.8594 23.3138C40.7083 21.7101 38.6422 19.9589 37.7567 19.2308L37.2845 19.1521C36.7237 19.0537 36.153 18.9947 35.5627 18.9947ZM35.8579 23.0088C37.8551 23.3433 40.1081 23.9631 39.7343 26.8163C37.3042 26.6294 34.9331 26.4621 35.8579 23.0088ZM11.8618 27.4656C9.93244 28.9611 7.57219 29.4924 5.04861 29.394C6.45256 32.4931 8.54718 35.1102 11.1534 36.5564C12.9538 35.4742 14.1443 33.3196 13.7114 31.0075C12.8358 29.9745 12.2258 28.7545 11.8618 27.4656ZM15.5414 32.6407C15.3544 34.5297 14.3903 36.2416 12.9932 37.4124C15.3446 38.3175 17.6075 38.5241 19.6342 38.2585C20.5 36.7138 20.441 35.4742 19.8998 34.1853C18.1781 33.9591 16.7318 33.4179 15.5414 32.6407ZM27.4165 33.5852C25.3307 34.0968 23.4515 34.3329 21.7888 34.3132C22.084 35.4152 22.1037 36.5958 21.7396 37.8158C22.0938 37.6977 22.448 37.5796 22.7825 37.4419C25.1044 36.5072 26.7376 34.9429 27.4165 33.5852Z" fill="#C64E56"/>
</svg>
